<mxfile host="Electron" modified="2024-08-24T10:53:10.065Z" agent="Mozilla/5.0 (Windows NT 10.0; Win64; x64) AppleWebKit/537.36 (KHTML, like Gecko) draw.io/24.6.4 Chrome/124.0.6367.207 Electron/30.0.6 Safari/537.36" etag="PNv8AR6Qttmeypsm0K0b" version="24.6.4" type="device">
  <diagram name="PÃ¡gina-1" id="wMBzhhmCwBxQDzJuzDIg">
    <mxGraphModel dx="1105" dy="662" grid="1" gridSize="10" guides="1" tooltips="1" connect="1" arrows="1" fold="1" page="1" pageScale="1" pageWidth="827" pageHeight="1169" math="0" shadow="0">
      <root>
        <mxCell id="0" />
        <mxCell id="1" parent="0" />
        <mxCell id="wwEhSpKqhu7WoPCeO-P2-3" value="" style="edgeStyle=orthogonalEdgeStyle;rounded=0;orthogonalLoop=1;jettySize=auto;html=1;" parent="1" source="wwEhSpKqhu7WoPCeO-P2-1" target="wwEhSpKqhu7WoPCeO-P2-2" edge="1">
          <mxGeometry relative="1" as="geometry">
            <Array as="points">
              <mxPoint x="400" y="191" />
              <mxPoint x="400" y="191" />
            </Array>
          </mxGeometry>
        </mxCell>
        <mxCell id="wwEhSpKqhu7WoPCeO-P2-12" style="edgeStyle=orthogonalEdgeStyle;rounded=0;orthogonalLoop=1;jettySize=auto;html=1;entryX=0.5;entryY=0;entryDx=0;entryDy=0;" parent="1" source="wwEhSpKqhu7WoPCeO-P2-1" target="wwEhSpKqhu7WoPCeO-P2-4" edge="1">
          <mxGeometry relative="1" as="geometry">
            <Array as="points">
              <mxPoint x="400" y="211" />
              <mxPoint x="160" y="211" />
            </Array>
          </mxGeometry>
        </mxCell>
        <mxCell id="wwEhSpKqhu7WoPCeO-P2-13" style="edgeStyle=orthogonalEdgeStyle;rounded=0;orthogonalLoop=1;jettySize=auto;html=1;entryX=0.5;entryY=0;entryDx=0;entryDy=0;" parent="1" source="wwEhSpKqhu7WoPCeO-P2-1" target="wwEhSpKqhu7WoPCeO-P2-6" edge="1">
          <mxGeometry relative="1" as="geometry">
            <Array as="points">
              <mxPoint x="400" y="211" />
              <mxPoint x="640" y="211" />
            </Array>
          </mxGeometry>
        </mxCell>
        <mxCell id="wwEhSpKqhu7WoPCeO-P2-1" value="&lt;div style=&quot;&quot;&gt;&lt;b style=&quot;&quot;&gt;&lt;font style=&quot;font-size: 12px;&quot;&gt;BASE MODEL&lt;/font&gt;&lt;/b&gt;&lt;/div&gt;&lt;div style=&quot;text-align: left;&quot;&gt;&lt;span style=&quot;background-color: initial;&quot;&gt;&lt;font style=&quot;font-size: 7px;&quot;&gt;- Prediction length = 183 (1 days)&lt;/font&gt;&lt;/span&gt;&lt;br&gt;&lt;/div&gt;&lt;font style=&quot;font-size: 7px;&quot;&gt;&lt;div style=&quot;text-align: left;&quot;&gt;&lt;span style=&quot;background-color: initial;&quot;&gt;- Context length = Prediction length x 2 = 366 (2 days)&lt;/span&gt;&lt;/div&gt;&lt;div style=&quot;text-align: left;&quot;&gt;&lt;span style=&quot;background-color: initial;&quot;&gt;- Lags secuence =&amp;nbsp;&lt;/span&gt;&lt;span style=&quot;background-color: initial; text-align: center;&quot;&gt;None&lt;/span&gt;&lt;/div&gt;&lt;div style=&quot;text-align: left;&quot;&gt;&lt;span style=&quot;background-color: initial;&quot;&gt;- Dropout = 0.1&lt;/span&gt;&lt;/div&gt;&lt;div style=&quot;text-align: left;&quot;&gt;&lt;span style=&quot;background-color: initial;&quot;&gt;- Encoder layers = 4&lt;/span&gt;&lt;/div&gt;&lt;div style=&quot;text-align: left;&quot;&gt;&lt;span style=&quot;background-color: initial;&quot;&gt;- Decoder layers = 4&lt;/span&gt;&lt;/div&gt;&lt;div style=&quot;text-align: left;&quot;&gt;&lt;span style=&quot;background-color: initial;&quot;&gt;- Dimensionality of the transformer layers = 32&lt;/span&gt;&lt;/div&gt;&lt;div style=&quot;text-align: left;&quot;&gt;&lt;span style=&quot;background-color: initial;&quot;&gt;- Batch size = 32&lt;/span&gt;&lt;/div&gt;&lt;div style=&quot;text-align: left;&quot;&gt;&lt;span style=&quot;background-color: initial;&quot;&gt;- Number of epochs = 20&lt;/span&gt;&lt;/div&gt;&lt;/font&gt;" style="rounded=1;whiteSpace=wrap;html=1;fillColor=#ffe6cc;strokeColor=#d79b00;" parent="1" vertex="1">
          <mxGeometry x="305" y="41" width="190" height="130" as="geometry" />
        </mxCell>
        <mxCell id="wwEhSpKqhu7WoPCeO-P2-9" value="" style="edgeStyle=orthogonalEdgeStyle;rounded=0;orthogonalLoop=1;jettySize=auto;html=1;" parent="1" source="wwEhSpKqhu7WoPCeO-P2-2" target="wwEhSpKqhu7WoPCeO-P2-8" edge="1">
          <mxGeometry relative="1" as="geometry">
            <Array as="points">
              <mxPoint x="400" y="331" />
              <mxPoint x="300" y="331" />
            </Array>
          </mxGeometry>
        </mxCell>
        <mxCell id="wwEhSpKqhu7WoPCeO-P2-18" style="edgeStyle=orthogonalEdgeStyle;rounded=0;orthogonalLoop=1;jettySize=auto;html=1;entryX=0.5;entryY=0;entryDx=0;entryDy=0;" parent="1" source="wwEhSpKqhu7WoPCeO-P2-2" target="wwEhSpKqhu7WoPCeO-P2-15" edge="1">
          <mxGeometry relative="1" as="geometry">
            <Array as="points">
              <mxPoint x="400" y="331" />
              <mxPoint x="100" y="331" />
            </Array>
          </mxGeometry>
        </mxCell>
        <mxCell id="wwEhSpKqhu7WoPCeO-P2-29" style="edgeStyle=orthogonalEdgeStyle;rounded=0;orthogonalLoop=1;jettySize=auto;html=1;entryX=0.5;entryY=0;entryDx=0;entryDy=0;" parent="1" source="wwEhSpKqhu7WoPCeO-P2-2" target="wwEhSpKqhu7WoPCeO-P2-16" edge="1">
          <mxGeometry relative="1" as="geometry">
            <Array as="points">
              <mxPoint x="400" y="331" />
              <mxPoint x="500" y="331" />
            </Array>
          </mxGeometry>
        </mxCell>
        <mxCell id="wwEhSpKqhu7WoPCeO-P2-32" style="edgeStyle=orthogonalEdgeStyle;rounded=0;orthogonalLoop=1;jettySize=auto;html=1;" parent="1" source="wwEhSpKqhu7WoPCeO-P2-2" target="wwEhSpKqhu7WoPCeO-P2-31" edge="1">
          <mxGeometry relative="1" as="geometry">
            <Array as="points">
              <mxPoint x="400" y="331" />
              <mxPoint x="700" y="331" />
            </Array>
          </mxGeometry>
        </mxCell>
        <mxCell id="wwEhSpKqhu7WoPCeO-P2-2" value="&lt;font style=&quot;font-size: 8px;&quot;&gt;Prediction Length = 2 days&lt;br&gt;Context Lenght = 4 days&lt;div style=&quot;display:none&quot; id=&quot;SDCloudData&quot;&gt;&lt;/div&gt;&lt;br&gt;&lt;/font&gt;" style="rounded=1;whiteSpace=wrap;html=1;fillColor=#fff2cc;strokeColor=#d6b656;" parent="1" vertex="1">
          <mxGeometry x="322" y="251" width="160" height="40" as="geometry" />
        </mxCell>
        <mxCell id="wwEhSpKqhu7WoPCeO-P2-4" value="&lt;font style=&quot;font-size: 8px;&quot;&gt;&lt;br&gt;Prediction Length = 0.5 days&lt;br&gt;Context Lenght = 1 days&lt;/font&gt;&lt;div style=&quot;display:none&quot; id=&quot;SDCloudData&quot;&gt;&lt;/div&gt;&lt;div&gt;&lt;br/&gt;&lt;/div&gt;" style="whiteSpace=wrap;html=1;rounded=1;fillColor=#fff2cc;strokeColor=#d6b656;" parent="1" vertex="1">
          <mxGeometry x="80" y="251" width="160" height="40" as="geometry" />
        </mxCell>
        <mxCell id="wwEhSpKqhu7WoPCeO-P2-6" value="&lt;font style=&quot;font-size: 8px;&quot;&gt;Prediction Length = 3 days&lt;br&gt;Context Lenght = 6 days&lt;div style=&quot;display:none&quot; id=&quot;SDCloudData&quot;&gt;&lt;/div&gt;&lt;br&gt;&lt;/font&gt;" style="whiteSpace=wrap;html=1;rounded=1;fillColor=#fff2cc;strokeColor=#d6b656;" parent="1" vertex="1">
          <mxGeometry x="560" y="251" width="160" height="40" as="geometry" />
        </mxCell>
        <mxCell id="wwEhSpKqhu7WoPCeO-P2-59" style="edgeStyle=orthogonalEdgeStyle;rounded=0;orthogonalLoop=1;jettySize=auto;html=1;" parent="1" source="wwEhSpKqhu7WoPCeO-P2-8" edge="1">
          <mxGeometry relative="1" as="geometry">
            <mxPoint x="400" y="491" as="targetPoint" />
            <Array as="points">
              <mxPoint x="300" y="451" />
              <mxPoint x="400" y="451" />
            </Array>
          </mxGeometry>
        </mxCell>
        <mxCell id="wwEhSpKqhu7WoPCeO-P2-8" value="&lt;font style=&quot;font-size: 8px;&quot;&gt;Context Lenght = 3 days&lt;div style=&quot;display:none&quot; id=&quot;SDCloudData&quot;&gt;&lt;/div&gt;&lt;br&gt;&lt;/font&gt;" style="whiteSpace=wrap;html=1;rounded=1;fillColor=#f8cecc;strokeColor=#b85450;" parent="1" vertex="1">
          <mxGeometry x="240" y="371" width="120" height="40" as="geometry" />
        </mxCell>
        <mxCell id="wwEhSpKqhu7WoPCeO-P2-56" style="edgeStyle=orthogonalEdgeStyle;rounded=0;orthogonalLoop=1;jettySize=auto;html=1;" parent="1" source="wwEhSpKqhu7WoPCeO-P2-15" target="wwEhSpKqhu7WoPCeO-P2-20" edge="1">
          <mxGeometry relative="1" as="geometry">
            <Array as="points">
              <mxPoint x="100" y="451" />
              <mxPoint x="400" y="451" />
            </Array>
          </mxGeometry>
        </mxCell>
        <mxCell id="wwEhSpKqhu7WoPCeO-P2-15" value="&lt;font style=&quot;font-size: 8px;&quot;&gt;Context Lenght = 2 days&lt;div style=&quot;display:none&quot; id=&quot;SDCloudData&quot;&gt;&lt;/div&gt;&lt;br&gt;&lt;/font&gt;" style="whiteSpace=wrap;html=1;rounded=1;fillColor=#f8cecc;strokeColor=#b85450;" parent="1" vertex="1">
          <mxGeometry x="40" y="371" width="120" height="40" as="geometry" />
        </mxCell>
        <mxCell id="wwEhSpKqhu7WoPCeO-P2-58" style="edgeStyle=orthogonalEdgeStyle;rounded=0;orthogonalLoop=1;jettySize=auto;html=1;entryX=0.5;entryY=0;entryDx=0;entryDy=0;" parent="1" edge="1">
          <mxGeometry relative="1" as="geometry">
            <mxPoint x="500.5" y="411" as="sourcePoint" />
            <mxPoint x="400" y="492" as="targetPoint" />
            <Array as="points">
              <mxPoint x="500.5" y="451" />
              <mxPoint x="400.5" y="451" />
            </Array>
          </mxGeometry>
        </mxCell>
        <mxCell id="wwEhSpKqhu7WoPCeO-P2-16" value="&lt;font style=&quot;font-size: 8px;&quot;&gt;Context Lenght = 5 days&lt;/font&gt;&lt;div style=&quot;display:none&quot; id=&quot;SDCloudData&quot;&gt;&lt;/div&gt;" style="whiteSpace=wrap;html=1;rounded=1;fillColor=#f8cecc;strokeColor=#b85450;" parent="1" vertex="1">
          <mxGeometry x="440" y="371" width="120" height="40" as="geometry" />
        </mxCell>
        <mxCell id="wwEhSpKqhu7WoPCeO-P2-20" value="Select new Base Model&amp;nbsp;from the above" style="rounded=1;whiteSpace=wrap;html=1;fillColor=#d5e8d4;strokeColor=#82b366;" parent="1" vertex="1">
          <mxGeometry x="319" y="492" width="161" height="40" as="geometry" />
        </mxCell>
        <mxCell id="wwEhSpKqhu7WoPCeO-P2-57" style="edgeStyle=orthogonalEdgeStyle;rounded=0;orthogonalLoop=1;jettySize=auto;html=1;exitX=0.5;exitY=1;exitDx=0;exitDy=0;" parent="1" source="wwEhSpKqhu7WoPCeO-P2-31" edge="1">
          <mxGeometry relative="1" as="geometry">
            <mxPoint x="400" y="491" as="targetPoint" />
            <Array as="points">
              <mxPoint x="700" y="451" />
              <mxPoint x="400" y="451" />
            </Array>
          </mxGeometry>
        </mxCell>
        <mxCell id="wwEhSpKqhu7WoPCeO-P2-31" value="&lt;font style=&quot;font-size: 8px;&quot;&gt;Context Lenght = 6 days&lt;/font&gt;&lt;div style=&quot;display:none&quot; id=&quot;SDCloudData&quot;&gt;&lt;/div&gt;" style="whiteSpace=wrap;html=1;rounded=1;fillColor=#f8cecc;strokeColor=#b85450;" parent="1" vertex="1">
          <mxGeometry x="640" y="371" width="120" height="40" as="geometry" />
        </mxCell>
        <mxCell id="Kr0yp0zaAIBSXRZyDndK-14" value="1" style="ellipse;whiteSpace=wrap;html=1;container=1;" parent="1" vertex="1">
          <mxGeometry x="452" y="40" width="30" height="30" as="geometry" />
        </mxCell>
        <mxCell id="Kr0yp0zaAIBSXRZyDndK-15" value="2" style="ellipse;whiteSpace=wrap;html=1;" parent="1" vertex="1">
          <mxGeometry x="220" y="240" width="30" height="30" as="geometry" />
        </mxCell>
        <mxCell id="Kr0yp0zaAIBSXRZyDndK-16" value="3" style="ellipse;whiteSpace=wrap;html=1;" parent="1" vertex="1">
          <mxGeometry x="460" y="240" width="30" height="30" as="geometry" />
        </mxCell>
        <mxCell id="Kr0yp0zaAIBSXRZyDndK-17" value="4" style="ellipse;whiteSpace=wrap;html=1;" parent="1" vertex="1">
          <mxGeometry x="700" y="240" width="30" height="30" as="geometry" />
        </mxCell>
        <mxCell id="Kr0yp0zaAIBSXRZyDndK-18" value="5" style="ellipse;whiteSpace=wrap;html=1;" parent="1" vertex="1">
          <mxGeometry x="139" y="360" width="30" height="30" as="geometry" />
        </mxCell>
        <mxCell id="Kr0yp0zaAIBSXRZyDndK-19" value="6" style="ellipse;whiteSpace=wrap;html=1;" parent="1" vertex="1">
          <mxGeometry x="340" y="360" width="30" height="30" as="geometry" />
        </mxCell>
        <mxCell id="Kr0yp0zaAIBSXRZyDndK-20" value="7" style="ellipse;whiteSpace=wrap;html=1;" parent="1" vertex="1">
          <mxGeometry x="539" y="360" width="30" height="30" as="geometry" />
        </mxCell>
        <mxCell id="Kr0yp0zaAIBSXRZyDndK-21" value="8" style="ellipse;whiteSpace=wrap;html=1;" parent="1" vertex="1">
          <mxGeometry x="740" y="360" width="30" height="30" as="geometry" />
        </mxCell>
      </root>
    </mxGraphModel>
  </diagram>
</mxfile>
